<svg width="22" height="22" viewBox="0 0 22 22" fill="none" xmlns="http://www.w3.org/2000/svg">
<path d="M16.616 2.17157L17.3231 1.46447V1.46447L16.616 2.17157ZM19.8284 5.38398L19.1213 6.09109L19.8284 5.38398ZM5 21C5 21.5523 5.44772 22 6 22C6.55228 22 7 21.5523 7 21H5ZM15 21V22H17V21H15ZM14 7C14.5523 7 15 6.55228 15 6C15 5.44772 14.5523 5 14 5V7ZM8 5C7.44772 5 7 5.44771 7 6C7 6.55228 7.44772 7 8 7V5ZM20 8.21241V17H22V8.21241H20ZM17 20H5V22H17V20ZM2 17V5H0V17H2ZM5 2H13.7876V0H5V2ZM15.9089 2.87868L19.1213 6.09109L20.5355 4.67688L17.3231 1.46447L15.9089 2.87868ZM13.7876 2C14.5832 2 15.3463 2.31607 15.9089 2.87868L17.3231 1.46447C16.3854 0.526784 15.1137 0 13.7876 0V2ZM5 20C3.34315 20 2 18.6569 2 17H0C0 19.7614 2.23858 22 5 22V20ZM20 17C20 18.6569 18.6569 20 17 20V22C19.7614 22 22 19.7614 22 17H20ZM22 8.21241C22 6.88633 21.4732 5.61456 20.5355 4.67688L19.1213 6.09109C19.6839 6.6537 20 7.41676 20 8.21241H22ZM2 5C2 3.34315 3.34315 2 5 2V0C2.23858 0 0 2.23858 0 5H2ZM7 21V15H5V21H7ZM8 14H14V12H8V14ZM15 15V21H17V15H15ZM14 14C14.5523 14 15 14.4477 15 15H17C17 13.3431 15.6569 12 14 12V14ZM7 15C7 14.4477 7.44772 14 8 14V12C6.34315 12 5 13.3431 5 15H7ZM14 5L8 5V7L14 7V5Z" fill="#F5E9CF"/>
</svg>
