<svg width="23" height="22" viewBox="0 0 23 22" fill="none" xmlns="http://www.w3.org/2000/svg">
<path d="M15.2214 8.84168L13.6177 10.2369C13.1333 10.6584 13.1333 11.3417 13.6177 11.7631L15.2214 13.1584M13.981 11L21.4233 11M1.57715 16.3959V5.60412M16.4618 16.3959C16.4618 17.5879 15.3511 18.5542 13.981 18.5542H9.01946M16.4618 5.60412C16.4618 4.4121 15.3511 3.44577 13.981 3.44577H9.01946M2.68183 19.195L5.1626 20.6339C6.81121 21.5901 9.01946 20.5619 9.01946 18.838V3.16198C9.01946 1.43812 6.81121 0.409895 5.1626 1.36612L2.68183 2.80503C1.99169 3.20533 1.57715 3.87923 1.57715 4.60088V17.3991C1.57715 18.1208 1.99169 18.7947 2.68183 19.195Z" stroke="#F5E9CF" stroke-width="2" stroke-linecap="round"/>
</svg>
